<mxfile host="app.diagrams.net" agent="Mozilla/5.0 (Windows NT 10.0; Win64; x64) AppleWebKit/537.36 (KHTML, like Gecko) Chrome/130.0.0.0 Safari/537.36" version="24.8.6">
  <diagram name="Page-1" id="5f0bae14-7c28-e335-631c-24af17079c00">
    <mxGraphModel dx="1937" dy="1034" grid="1" gridSize="10" guides="1" tooltips="1" connect="1" arrows="1" fold="1" page="1" pageScale="1" pageWidth="1700" pageHeight="1100" background="none" math="0" shadow="0">
      <root>
        <mxCell id="0" />
        <mxCell id="1" parent="0" />
        <mxCell id="xzQfGGIQHrxOKFnbZPIc-1" value="" style="ellipse;whiteSpace=wrap;html=1;aspect=fixed;" vertex="1" parent="1">
          <mxGeometry x="1407.5" y="435" width="80" height="80" as="geometry" />
        </mxCell>
        <mxCell id="xzQfGGIQHrxOKFnbZPIc-2" value="" style="group" vertex="1" connectable="0" parent="1">
          <mxGeometry x="1320" y="525" width="165" height="70" as="geometry" />
        </mxCell>
        <mxCell id="xzQfGGIQHrxOKFnbZPIc-3" value="&lt;div&gt;«component»&lt;/div&gt;&lt;div&gt;&lt;b&gt;ComponentName&lt;/b&gt;&lt;/div&gt;" style="html=1;rounded=0;shadow=0;comic=0;labelBackgroundColor=none;strokeWidth=1;fontFamily=Verdana;fontSize=12;align=center;" vertex="1" parent="xzQfGGIQHrxOKFnbZPIc-2">
          <mxGeometry width="165" height="70" as="geometry" />
        </mxCell>
        <mxCell id="xzQfGGIQHrxOKFnbZPIc-4" value="" style="group" vertex="1" connectable="0" parent="xzQfGGIQHrxOKFnbZPIc-2">
          <mxGeometry x="142" y="4" width="20" height="21" as="geometry" />
        </mxCell>
        <mxCell id="xzQfGGIQHrxOKFnbZPIc-5" value="" style="rounded=0;whiteSpace=wrap;html=1;" vertex="1" parent="xzQfGGIQHrxOKFnbZPIc-4">
          <mxGeometry x="3" width="17" height="21" as="geometry" />
        </mxCell>
        <mxCell id="xzQfGGIQHrxOKFnbZPIc-6" value="" style="rounded=0;whiteSpace=wrap;html=1;" vertex="1" parent="xzQfGGIQHrxOKFnbZPIc-4">
          <mxGeometry y="12" width="7" height="5" as="geometry" />
        </mxCell>
        <mxCell id="xzQfGGIQHrxOKFnbZPIc-7" value="" style="rounded=0;whiteSpace=wrap;html=1;" vertex="1" parent="xzQfGGIQHrxOKFnbZPIc-4">
          <mxGeometry y="4" width="7" height="5" as="geometry" />
        </mxCell>
        <mxCell id="xzQfGGIQHrxOKFnbZPIc-8" value="&lt;div style=&quot;text-align: right;&quot;&gt;&lt;br&gt;&lt;/div&gt;" style="whiteSpace=wrap;html=1;aspect=fixed;" vertex="1" parent="1">
          <mxGeometry x="1465" y="615" width="20" height="20" as="geometry" />
        </mxCell>
        <mxCell id="xzQfGGIQHrxOKFnbZPIc-9" style="rounded=0;orthogonalLoop=1;jettySize=auto;html=1;endArrow=halfCircle;endFill=0;" edge="1" parent="1">
          <mxGeometry relative="1" as="geometry">
            <mxPoint x="1407.5" y="660" as="sourcePoint" />
            <mxPoint x="1455" y="660" as="targetPoint" />
          </mxGeometry>
        </mxCell>
        <mxCell id="xzQfGGIQHrxOKFnbZPIc-10" value="interface name" style="edgeLabel;html=1;align=center;verticalAlign=middle;resizable=0;points=[];" vertex="1" connectable="0" parent="xzQfGGIQHrxOKFnbZPIc-9">
          <mxGeometry x="-0.1049" relative="1" as="geometry">
            <mxPoint x="21" y="15" as="offset" />
          </mxGeometry>
        </mxCell>
        <mxCell id="xzQfGGIQHrxOKFnbZPIc-11" value="" style="rounded=0;orthogonalLoop=1;jettySize=auto;html=1;endArrow=oval;endFill=0;sketch=0;sourcePerimeterSpacing=0;targetPerimeterSpacing=0;endSize=10;jumpStyle=none;movable=1;resizable=1;rotatable=1;deletable=1;editable=1;locked=0;connectable=1;" edge="1" parent="1">
          <mxGeometry relative="1" as="geometry">
            <mxPoint x="1410" y="705" as="sourcePoint" />
            <mxPoint x="1450" y="705" as="targetPoint" />
          </mxGeometry>
        </mxCell>
        <mxCell id="xzQfGGIQHrxOKFnbZPIc-12" value="&lt;span style=&quot;color: rgba(0, 0, 0, 0); font-family: monospace; font-size: 0px; text-align: start; background-color: rgb(251, 251, 251);&quot;&gt;%3CmxGraphModel%3E%3Croot%3E%3CmxCell%20id%3D%220%22%2F%3E%3CmxCell%20id%3D%221%22%20parent%3D%220%22%2F%3E%3CmxCell%20id%3D%222%22%20value%3D%22interface%20name%22%20style%3D%22edgeLabel%3Bhtml%3D1%3Balign%3Dcenter%3BverticalAlign%3Dmiddle%3Bresizable%3D0%3Bpoints%3D%5B%5D%3B%22%20vertex%3D%221%22%20connectable%3D%220%22%20parent%3D%221%22%3E%3CmxGeometry%20x%3D%221439.9035087719299%22%20y%3D%22550%22%20as%3D%22geometry%22%2F%3E%3C%2FmxCell%3E%3C%2Froot%3E%3C%2FmxGraphModel%3E&lt;/span&gt;" style="edgeLabel;html=1;align=center;verticalAlign=middle;resizable=0;points=[];" vertex="1" connectable="0" parent="xzQfGGIQHrxOKFnbZPIc-11">
          <mxGeometry x="0.1952" y="-1" relative="1" as="geometry">
            <mxPoint as="offset" />
          </mxGeometry>
        </mxCell>
        <mxCell id="xzQfGGIQHrxOKFnbZPIc-13" value="interface name" style="edgeLabel;html=1;align=center;verticalAlign=middle;resizable=0;points=[];" vertex="1" connectable="0" parent="xzQfGGIQHrxOKFnbZPIc-11">
          <mxGeometry x="0.0899" y="1" relative="1" as="geometry">
            <mxPoint x="15" y="14" as="offset" />
          </mxGeometry>
        </mxCell>
        <mxCell id="xzQfGGIQHrxOKFnbZPIc-14" value="&#xa;" style="swimlane;startSize=0;strokeWidth=5;swimlaneFillColor=#CCCCCC;fontStyle=0;verticalAlign=middle;" vertex="1" parent="1">
          <mxGeometry x="1287.5" y="745" width="200" height="70" as="geometry" />
        </mxCell>
        <mxCell id="xzQfGGIQHrxOKFnbZPIc-15" value="&amp;lt;&amp;lt;system&amp;gt;&amp;gt;&lt;div&gt;&lt;b&gt;SystemName&lt;/b&gt;&lt;/div&gt;" style="text;html=1;align=center;verticalAlign=middle;resizable=0;points=[];autosize=1;strokeColor=none;fillColor=none;" vertex="1" parent="xzQfGGIQHrxOKFnbZPIc-14">
          <mxGeometry x="50" y="11.46" width="100" height="40" as="geometry" />
        </mxCell>
        <mxCell id="xzQfGGIQHrxOKFnbZPIc-16" value="system bounds" style="text;html=1;align=center;verticalAlign=middle;resizable=0;points=[];autosize=1;strokeColor=none;fillColor=none;" vertex="1" parent="1">
          <mxGeometry x="1492.5" y="745" width="100" height="30" as="geometry" />
        </mxCell>
        <mxCell id="xzQfGGIQHrxOKFnbZPIc-17" value="&lt;span style=&quot;background-color: rgb(255, 255, 255);&quot;&gt;&lt;font style=&quot;font-size: 12px;&quot;&gt;provided interface&lt;/font&gt;&lt;/span&gt;" style="text;html=1;align=center;verticalAlign=middle;resizable=0;points=[];autosize=1;strokeColor=none;fillColor=none;" vertex="1" parent="1">
          <mxGeometry x="1482.5" y="693" width="120" height="30" as="geometry" />
        </mxCell>
        <mxCell id="xzQfGGIQHrxOKFnbZPIc-18" value="&lt;span style=&quot;background-color: rgb(255, 255, 255);&quot;&gt;&lt;font style=&quot;font-size: 12px;&quot;&gt;required interface&lt;/font&gt;&lt;/span&gt;" style="text;html=1;align=center;verticalAlign=middle;resizable=0;points=[];autosize=1;strokeColor=none;fillColor=none;" vertex="1" parent="1">
          <mxGeometry x="1482.5" y="645" width="120" height="30" as="geometry" />
        </mxCell>
        <mxCell id="xzQfGGIQHrxOKFnbZPIc-19" value="&lt;div style=&quot;text-wrap-mode: wrap; text-align: right;&quot;&gt;&lt;span style=&quot;background-color: initial;&quot;&gt;&lt;font style=&quot;font-size: 12px;&quot;&gt;port&lt;/font&gt;&lt;/span&gt;&lt;/div&gt;" style="text;html=1;align=center;verticalAlign=middle;resizable=0;points=[];autosize=1;strokeColor=none;fillColor=none;" vertex="1" parent="1">
          <mxGeometry x="1487.5" y="610" width="40" height="30" as="geometry" />
        </mxCell>
        <mxCell id="xzQfGGIQHrxOKFnbZPIc-20" value="component" style="text;html=1;align=center;verticalAlign=middle;resizable=0;points=[];autosize=1;strokeColor=none;fillColor=none;" vertex="1" parent="1">
          <mxGeometry x="1487.5" y="545" width="80" height="30" as="geometry" />
        </mxCell>
        <mxCell id="xzQfGGIQHrxOKFnbZPIc-21" value="&lt;span style=&quot;text-wrap-mode: wrap;&quot;&gt;actor&lt;/span&gt;" style="text;html=1;align=center;verticalAlign=middle;resizable=0;points=[];autosize=1;strokeColor=none;fillColor=none;" vertex="1" parent="1">
          <mxGeometry x="1487.5" y="460" width="50" height="30" as="geometry" />
        </mxCell>
        <mxCell id="xzQfGGIQHrxOKFnbZPIc-22" value="" style="swimlane;startSize=0;" vertex="1" parent="1">
          <mxGeometry x="1270" y="410" width="340" height="425" as="geometry" />
        </mxCell>
        <mxCell id="xzQfGGIQHrxOKFnbZPIc-23" value="&lt;font style=&quot;font-size: 22px;&quot;&gt;Key:&lt;/font&gt;" style="text;html=1;align=center;verticalAlign=middle;whiteSpace=wrap;rounded=0;" vertex="1" parent="xzQfGGIQHrxOKFnbZPIc-22">
          <mxGeometry y="3.5" width="60" height="30" as="geometry" />
        </mxCell>
      </root>
    </mxGraphModel>
  </diagram>
</mxfile>
